<svg xmlns="http://www.w3.org/2000/svg" viewBox="0 0 800 800" width="800" height="800" role="img">
  <defs>
    <linearGradient id="bg" gradientTransform="rotate(90)">
      <stop offset="0%" stop-color="hsl(111 62% 93%)"/>
      <stop offset="100%" stop-color="hsl(153 55% 84%)"/>
    </linearGradient>
  </defs>
  <rect width="800" height="800" fill="url(#bg)"/>
  <circle cx="258" cy="649" r="45" fill="hsl(153 62% 52%)" opacity="0.18"/>
  <circle cx="542" cy="243" r="72" fill="hsl(153 62% 52%)" opacity="0.12"/>
  <g transform="translate(50 20) scale(7)" fill="none" stroke="hsl(111 48% 28%)" stroke-width="3.2" stroke-linecap="round" stroke-linejoin="round" opacity="0.85">
    <path d="M24 42h52a8 8 0 0 1 8 8v8H16v-8a8 8 0 0 1 8-8Zm-8 16a7 7 0 0 1 14 0v4h40v-4a7 7 0 0 1 14 0v20H16V58Zm14 4h40M26 78v7m48-7v7"/>
  </g>
</svg>
