<svg xmlns="http://www.w3.org/2000/svg" viewBox="0 0 640 400" width="640" height="400" role="img" aria-label="Sorry gift card design">
  <defs>
    <linearGradient id="wash" x1="0" y1="0" x2="1" y2="1">
      <stop offset="0%" stop-color="hsl(355 46% 16%)"/>
      <stop offset="100%" stop-color="hsl(23 54% 30%)"/>
    </linearGradient>
  </defs>

  <rect width="640" height="400" fill="url(#wash)"/>
  <!-- The motifs are drawn around (320, 140); scaling about that point fills the
       face above the band instead of leaving a dead strip across the middle.
       A uniform scale, so nothing that should be round comes out oval. -->
  <g transform="translate(320 148) scale(1.26) translate(-320 -148)"><ellipse cx="203.4" cy="124.5" rx="16" ry="10" fill="hsl(39 94% 70%)" opacity="0.85" transform="rotate(0 203.4 124.5)"/><ellipse cx="195.8" cy="142.8" rx="16" ry="10" fill="hsl(39 94% 70%)" opacity="0.85" transform="rotate(45 195.8 142.8)"/><ellipse cx="177.4" cy="150.5" rx="16" ry="10" fill="hsl(39 94% 70%)" opacity="0.85" transform="rotate(90 177.4 150.5)"/><ellipse cx="159.0" cy="142.8" rx="16" ry="10" fill="hsl(39 94% 70%)" opacity="0.85" transform="rotate(135 159.0 142.8)"/><ellipse cx="151.4" cy="124.5" rx="16" ry="10" fill="hsl(39 94% 70%)" opacity="0.85" transform="rotate(180 151.4 124.5)"/><ellipse cx="159.0" cy="106.1" rx="16" ry="10" fill="hsl(39 94% 70%)" opacity="0.85" transform="rotate(225 159.0 106.1)"/><ellipse cx="177.4" cy="98.5" rx="16" ry="10" fill="hsl(39 94% 70%)" opacity="0.85" transform="rotate(270 177.4 98.5)"/><ellipse cx="195.8" cy="106.1" rx="16" ry="10" fill="hsl(39 94% 70%)" opacity="0.85" transform="rotate(315 195.8 106.1)"/><circle cx="177" cy="124" r="15" fill="hsl(0 0% 100%)" opacity="0.85"/><ellipse cx="348.1" cy="132.1" rx="16" ry="10" fill="hsl(355 74% 66%)" opacity="0.85" transform="rotate(0 348.1 132.1)"/><ellipse cx="340.5" cy="150.5" rx="16" ry="10" fill="hsl(355 74% 66%)" opacity="0.85" transform="rotate(45 340.5 150.5)"/><ellipse cx="322.1" cy="158.1" rx="16" ry="10" fill="hsl(355 74% 66%)" opacity="0.85" transform="rotate(90 322.1 158.1)"/><ellipse cx="303.7" cy="150.5" rx="16" ry="10" fill="hsl(355 74% 66%)" opacity="0.85" transform="rotate(135 303.7 150.5)"/><ellipse cx="296.1" cy="132.1" rx="16" ry="10" fill="hsl(355 74% 66%)" opacity="0.85" transform="rotate(180 296.1 132.1)"/><ellipse cx="303.7" cy="113.8" rx="16" ry="10" fill="hsl(355 74% 66%)" opacity="0.85" transform="rotate(225 303.7 113.8)"/><ellipse cx="322.1" cy="106.1" rx="16" ry="10" fill="hsl(355 74% 66%)" opacity="0.85" transform="rotate(270 322.1 106.1)"/><ellipse cx="340.5" cy="113.8" rx="16" ry="10" fill="hsl(355 74% 66%)" opacity="0.85" transform="rotate(315 340.5 113.8)"/><circle cx="322" cy="132" r="15" fill="hsl(0 0% 100%)" opacity="0.85"/><ellipse cx="524.0" cy="142.3" rx="16" ry="10" fill="hsl(39 94% 70%)" opacity="0.85" transform="rotate(0 524.0 142.3)"/><ellipse cx="516.4" cy="160.7" rx="16" ry="10" fill="hsl(39 94% 70%)" opacity="0.85" transform="rotate(45 516.4 160.7)"/><ellipse cx="498.0" cy="168.3" rx="16" ry="10" fill="hsl(39 94% 70%)" opacity="0.85" transform="rotate(90 498.0 168.3)"/><ellipse cx="479.6" cy="160.7" rx="16" ry="10" fill="hsl(39 94% 70%)" opacity="0.85" transform="rotate(135 479.6 160.7)"/><ellipse cx="472.0" cy="142.3" rx="16" ry="10" fill="hsl(39 94% 70%)" opacity="0.85" transform="rotate(180 472.0 142.3)"/><ellipse cx="479.6" cy="123.9" rx="16" ry="10" fill="hsl(39 94% 70%)" opacity="0.85" transform="rotate(225 479.6 123.9)"/><ellipse cx="498.0" cy="116.3" rx="16" ry="10" fill="hsl(39 94% 70%)" opacity="0.85" transform="rotate(270 498.0 116.3)"/><ellipse cx="516.4" cy="123.9" rx="16" ry="10" fill="hsl(39 94% 70%)" opacity="0.85" transform="rotate(315 516.4 123.9)"/><circle cx="498" cy="142" r="15" fill="hsl(0 0% 100%)" opacity="0.85"/></g>

  <rect x="0" y="304" width="640" height="96" fill="rgba(0,0,0,0.34)"/>
  <rect x="0" y="304" width="640" height="3" fill="hsl(39 94% 70%)"/>
  <text x="320" y="364" text-anchor="middle" font-family="Georgia, 'Times New Roman', serif" font-size="44" font-weight="700" fill="hsl(0 0% 100%)">Sorry</text>
</svg>
