<svg xmlns="http://www.w3.org/2000/svg" viewBox="0 0 640 400" width="640" height="400" role="img" aria-label="Thank You gift card design">
  <defs>
    <linearGradient id="wash" x1="0" y1="0" x2="1" y2="1">
      <stop offset="0%" stop-color="hsl(300 82% 92%)"/>
      <stop offset="100%" stop-color="hsl(328 76% 82%)"/>
    </linearGradient>
  </defs>

  <rect width="640" height="400" fill="url(#wash)"/>
  <!-- The motifs are drawn around (320, 140); scaling about that point fills the
       face above the band instead of leaving a dead strip across the middle.
       A uniform scale, so nothing that should be round comes out oval. -->
  <g transform="translate(320 148) scale(1.26) translate(-320 -148)"><ellipse cx="191.3" cy="157.0" rx="16" ry="10" fill="hsl(300 74% 52%)" opacity="0.85" transform="rotate(0 191.3 157.0)"/><ellipse cx="183.7" cy="175.4" rx="16" ry="10" fill="hsl(300 74% 52%)" opacity="0.85" transform="rotate(45 183.7 175.4)"/><ellipse cx="165.3" cy="183.0" rx="16" ry="10" fill="hsl(300 74% 52%)" opacity="0.85" transform="rotate(90 165.3 183.0)"/><ellipse cx="146.9" cy="175.4" rx="16" ry="10" fill="hsl(300 74% 52%)" opacity="0.85" transform="rotate(135 146.9 175.4)"/><ellipse cx="139.3" cy="157.0" rx="16" ry="10" fill="hsl(300 74% 52%)" opacity="0.85" transform="rotate(180 139.3 157.0)"/><ellipse cx="146.9" cy="138.6" rx="16" ry="10" fill="hsl(300 74% 52%)" opacity="0.85" transform="rotate(225 146.9 138.6)"/><ellipse cx="165.3" cy="131.0" rx="16" ry="10" fill="hsl(300 74% 52%)" opacity="0.85" transform="rotate(270 165.3 131.0)"/><ellipse cx="183.7" cy="138.6" rx="16" ry="10" fill="hsl(300 74% 52%)" opacity="0.85" transform="rotate(315 183.7 138.6)"/><circle cx="165" cy="157" r="15" fill="hsl(300 62% 24%)" opacity="0.85"/><ellipse cx="365.3" cy="123.5" rx="16" ry="10" fill="hsl(130 62% 46%)" opacity="0.85" transform="rotate(0 365.3 123.5)"/><ellipse cx="357.6" cy="141.9" rx="16" ry="10" fill="hsl(130 62% 46%)" opacity="0.85" transform="rotate(45 357.6 141.9)"/><ellipse cx="339.3" cy="149.5" rx="16" ry="10" fill="hsl(130 62% 46%)" opacity="0.85" transform="rotate(90 339.3 149.5)"/><ellipse cx="320.9" cy="141.9" rx="16" ry="10" fill="hsl(130 62% 46%)" opacity="0.85" transform="rotate(135 320.9 141.9)"/><ellipse cx="313.3" cy="123.5" rx="16" ry="10" fill="hsl(130 62% 46%)" opacity="0.85" transform="rotate(180 313.3 123.5)"/><ellipse cx="320.9" cy="105.2" rx="16" ry="10" fill="hsl(130 62% 46%)" opacity="0.85" transform="rotate(225 320.9 105.2)"/><ellipse cx="339.3" cy="97.5" rx="16" ry="10" fill="hsl(130 62% 46%)" opacity="0.85" transform="rotate(270 339.3 97.5)"/><ellipse cx="357.6" cy="105.2" rx="16" ry="10" fill="hsl(130 62% 46%)" opacity="0.85" transform="rotate(315 357.6 105.2)"/><circle cx="339" cy="124" r="15" fill="hsl(300 62% 24%)" opacity="0.85"/><ellipse cx="533.4" cy="122.4" rx="16" ry="10" fill="hsl(300 74% 52%)" opacity="0.85" transform="rotate(0 533.4 122.4)"/><ellipse cx="525.8" cy="140.7" rx="16" ry="10" fill="hsl(300 74% 52%)" opacity="0.85" transform="rotate(45 525.8 140.7)"/><ellipse cx="507.4" cy="148.4" rx="16" ry="10" fill="hsl(300 74% 52%)" opacity="0.85" transform="rotate(90 507.4 148.4)"/><ellipse cx="489.0" cy="140.7" rx="16" ry="10" fill="hsl(300 74% 52%)" opacity="0.85" transform="rotate(135 489.0 140.7)"/><ellipse cx="481.4" cy="122.4" rx="16" ry="10" fill="hsl(300 74% 52%)" opacity="0.85" transform="rotate(180 481.4 122.4)"/><ellipse cx="489.0" cy="104.0" rx="16" ry="10" fill="hsl(300 74% 52%)" opacity="0.85" transform="rotate(225 489.0 104.0)"/><ellipse cx="507.4" cy="96.4" rx="16" ry="10" fill="hsl(300 74% 52%)" opacity="0.85" transform="rotate(270 507.4 96.4)"/><ellipse cx="525.8" cy="104.0" rx="16" ry="10" fill="hsl(300 74% 52%)" opacity="0.85" transform="rotate(315 525.8 104.0)"/><circle cx="507" cy="122" r="15" fill="hsl(300 62% 24%)" opacity="0.85"/></g>

  <rect x="0" y="304" width="640" height="96" fill="rgba(255,255,255,0.78)"/>
  <rect x="0" y="304" width="640" height="3" fill="hsl(300 74% 52%)"/>
  <text x="320" y="364" text-anchor="middle" font-family="Georgia, 'Times New Roman', serif" font-size="44" font-weight="700" fill="hsl(300 62% 24%)">Thank You</text>
</svg>
