<svg xmlns="http://www.w3.org/2000/svg" viewBox="0 0 800 520" width="800" height="520" preserveAspectRatio="xMidYMid slice" role="img">
  <defs>
    <linearGradient id="sky" x1="0" y1="0" x2="0" y2="1">
      <stop offset="0%" stop-color="hsl(248 46% 34%)"/>
      <stop offset="58%" stop-color="hsl(318 40% 50%)"/>
      <stop offset="100%" stop-color="hsl(24 70% 64%)"/>
    </linearGradient>
    <linearGradient id="water" x1="0" y1="0" x2="0" y2="1">
      <stop offset="0%" stop-color="#ffffff" stop-opacity="0.3"/>
      <stop offset="100%" stop-color="#000000" stop-opacity="0.2"/>
    </linearGradient>
    <radialGradient id="glow" cx="50%" cy="34%">
      <stop offset="0%" stop-color="#ffffff" stop-opacity="0.5"/>
      <stop offset="100%" stop-color="#ffffff" stop-opacity="0"/>
    </radialGradient>
    <radialGradient id="lamp" cx="50%" cy="50%">
      <stop offset="0%" stop-color="hsl(44 92% 72%)" stop-opacity="0.35"/>
      <stop offset="100%" stop-color="hsl(44 92% 72%)" stop-opacity="0"/>
    </radialGradient>
  </defs>
  <rect width="800" height="520" fill="url(#sky)"/><circle cx="112" cy="188" r="1.5" fill="#ffffff" opacity="0.41"/><circle cx="724" cy="169" r="1.7" fill="#ffffff" opacity="0.41"/><circle cx="667" cy="10" r="1.1" fill="#ffffff" opacity="0.30"/><circle cx="458" cy="66" r="1.4" fill="#ffffff" opacity="0.76"/><circle cx="675" cy="137" r="1.9" fill="#ffffff" opacity="0.56"/><circle cx="573" cy="21" r="1.1" fill="#ffffff" opacity="0.58"/><circle cx="673" cy="156" r="1.9" fill="#ffffff" opacity="0.50"/><circle cx="238" cy="204" r="1.7" fill="#ffffff" opacity="0.42"/><circle cx="665" cy="216" r="1.5" fill="#ffffff" opacity="0.26"/><circle cx="396" cy="102" r="1.4" fill="#ffffff" opacity="0.46"/><circle cx="78" cy="0" r="1.1" fill="#ffffff" opacity="0.67"/><circle cx="455" cy="91" r="1.7" fill="#ffffff" opacity="0.53"/><circle cx="56" cy="246" r="1.2" fill="#ffffff" opacity="0.38"/><circle cx="671" cy="186" r="1.7" fill="#ffffff" opacity="0.30"/><circle cx="751" cy="220" r="1.3" fill="#ffffff" opacity="0.45"/><circle cx="510" cy="165" r="1.3" fill="#ffffff" opacity="0.39"/><circle cx="454" cy="60" r="29" fill="hsl(20 92% 68%)" opacity="0.92"/>
  <path d="M0 288 q 200 -10 400 0 t 400 0 V 520 H0 Z" fill="hsl(192 47% 29%)" opacity="0.95"/><path d="M0 318 q 200 -16 400 0 t 400 0 V 520 H0 Z" fill="hsl(189 48% 30%)" opacity="0.89"/><path d="M0 348 q 200 -19 400 0 t 400 0 V 520 H0 Z" fill="hsl(186 49% 32%)" opacity="0.83"/><path d="M0 378 q 200 -18 400 0 t 400 0 V 520 H0 Z" fill="hsl(183 51% 33%)" opacity="0.77"/><path d="M0 408 q 200 -15 400 0 t 400 0 V 520 H0 Z" fill="hsl(180 52% 34%)" opacity="0.71"/>
  <ellipse cx="570" cy="418" rx="82" ry="5" fill="#ffffff" opacity="0.50"/><ellipse cx="130" cy="398" rx="73" ry="5" fill="#ffffff" opacity="0.43"/><ellipse cx="674" cy="401" rx="59" ry="5" fill="#ffffff" opacity="0.39"/><ellipse cx="422" cy="399" rx="70" ry="5" fill="#ffffff" opacity="0.24"/>
  <path d="M0 446 q 267 -24 528 6 T 800 458 V 520 H0 Z" fill="hsl(42 43% 56%)"/>
  <path d="M252.9 450.1 Q 249.4 398.1 244.3 346.0" fill="none" stroke="hsl(80 32% 20%)" stroke-width="8" stroke-linecap="round"/><path d="M244.3 346.0 q -30.7 -21.8 -51.2 -16.3" fill="none" stroke="hsl(120 32% 20%)" stroke-width="6" stroke-linecap="round"/><path d="M244.3 346.0 q -13.8 -32.3 -22.9 -33.8" fill="none" stroke="hsl(120 32% 20%)" stroke-width="6" stroke-linecap="round"/><path d="M244.3 346.0 q -0.3 -45.3 -0.5 -55.5" fill="none" stroke="hsl(120 32% 20%)" stroke-width="6" stroke-linecap="round"/><path d="M244.3 346.0 q 14.2 -29.8 23.7 -29.7" fill="none" stroke="hsl(120 32% 20%)" stroke-width="6" stroke-linecap="round"/><path d="M244.3 346.0 q 34.3 -24.4 57.2 -20.6" fill="none" stroke="hsl(120 32% 20%)" stroke-width="6" stroke-linecap="round"/><path d="M244.3 346.0 q 35.8 -2.5 59.6 15.8" fill="none" stroke="hsl(120 32% 20%)" stroke-width="6" stroke-linecap="round"/><path d="M244.3 346.0 q 19.4 12.5 32.3 40.8" fill="none" stroke="hsl(120 32% 20%)" stroke-width="6" stroke-linecap="round"/><path d="M655.9 469.0 Q 662.8 397.4 673.2 325.8" fill="none" stroke="hsl(80 32% 20%)" stroke-width="8" stroke-linecap="round"/><path d="M673.2 325.8 q -34.7 -23.4 -57.9 -19.0" fill="none" stroke="hsl(120 32% 20%)" stroke-width="6" stroke-linecap="round"/><path d="M673.2 325.8 q -18.4 -40.1 -30.6 -46.8" fill="none" stroke="hsl(120 32% 20%)" stroke-width="6" stroke-linecap="round"/><path d="M673.2 325.8 q -0.1 -34.5 -0.2 -37.5" fill="none" stroke="hsl(120 32% 20%)" stroke-width="6" stroke-linecap="round"/><path d="M673.2 325.8 q 19.7 -42.8 32.9 -51.3" fill="none" stroke="hsl(120 32% 20%)" stroke-width="6" stroke-linecap="round"/><path d="M673.2 325.8 q 27.2 -22.8 45.4 -18.0" fill="none" stroke="hsl(120 32% 20%)" stroke-width="6" stroke-linecap="round"/><path d="M673.2 325.8 q 30.6 -5.2 51.0 11.3" fill="none" stroke="hsl(120 32% 20%)" stroke-width="6" stroke-linecap="round"/><path d="M673.2 325.8 q 17.6 13.3 29.3 42.2" fill="none" stroke="hsl(120 32% 20%)" stroke-width="6" stroke-linecap="round"/><path d="M541.2 463.4 Q 544.5 392.9 549.4 322.4" fill="none" stroke="hsl(80 32% 20%)" stroke-width="8" stroke-linecap="round"/><path d="M549.4 322.4 q -29.0 -20.2 -48.3 -13.6" fill="none" stroke="hsl(120 32% 20%)" stroke-width="6" stroke-linecap="round"/><path d="M549.4 322.4 q -19.1 -40.5 -31.8 -47.5" fill="none" stroke="hsl(120 32% 20%)" stroke-width="6" stroke-linecap="round"/><path d="M549.4 322.4 q -3.1 -46.8 -5.2 -58.0" fill="none" stroke="hsl(120 32% 20%)" stroke-width="6" stroke-linecap="round"/><path d="M549.4 322.4 q 18.2 -40.1 30.4 -46.8" fill="none" stroke="hsl(120 32% 20%)" stroke-width="6" stroke-linecap="round"/><path d="M549.4 322.4 q 31.3 -21.9 52.1 -16.6" fill="none" stroke="hsl(120 32% 20%)" stroke-width="6" stroke-linecap="round"/><path d="M549.4 322.4 q 20.5 -5.1 34.2 11.5" fill="none" stroke="hsl(120 32% 20%)" stroke-width="6" stroke-linecap="round"/><path d="M549.4 322.4 q 15.9 7.1 26.5 31.8" fill="none" stroke="hsl(120 32% 20%)" stroke-width="6" stroke-linecap="round"/>
</svg>
